<svg id="final" xmlns="http://www.w3.org/2000/svg" viewBox="0 0 80 80"><defs><style>.cls-1{fill:none;}.cls-2{fill:#76b900;}</style></defs><title>gfn-icon-set-r2</title><path class="cls-1" d="M59.39,12.08H20.59V70.32h38.8ZM48.05,51l-5.48-5.84H37.41L31.94,51a3,3,0,0,1-5.09-2.47l1.67-11a3.6,3.6,0,0,1,3.56-3.06V34a.74.74,0,0,1,.73-.74h3.77a.74.74,0,0,1,.74.74v.5h5.35V34a.73.73,0,0,1,.73-.74h3.77a.74.74,0,0,1,.73.74v.5a3.6,3.6,0,0,1,3.56,3.06l1.67,11A3,3,0,0,1,48.05,51Z"/><polygon class="cls-1" points="35.64 37.03 33.65 37.03 33.65 38.81 31.87 38.81 31.87 40.8 33.65 40.8 33.65 42.58 35.64 42.58 35.64 40.8 37.42 40.8 37.42 38.81 35.64 38.81 35.64 37.03"/><path class="cls-1" d="M45.33,37a2.78,2.78,0,1,0,2.78,2.77A2.77,2.77,0,0,0,45.33,37Z"/><rect class="cls-2" x="0.49" y="11.71" width="6.75" height="58.31"/><path class="cls-2" d="M13.84,77.07h52.3V5.33H13.84Zm6.75-65h38.8V70.32H20.59Z"/><path class="cls-2" d="M51.46,37.52a3.6,3.6,0,0,0-3.56-3.06V34a.74.74,0,0,0-.73-.74H43.4a.73.73,0,0,0-.73.74v.5H37.32V34a.74.74,0,0,0-.74-.74H32.81a.74.74,0,0,0-.73.74v.5a3.6,3.6,0,0,0-3.56,3.06l-1.67,11A3,3,0,0,0,31.94,51l5.47-5.84h5.16L48.05,51a3,3,0,0,0,5.08-2.47Zm-14,3.28H35.64v1.78h-2V40.8H31.87v-2h1.78V37h2v1.78h1.78Zm7.91,1.78a2.78,2.78,0,1,1,2.78-2.78A2.77,2.77,0,0,1,45.33,42.58Z"/><rect class="cls-2" x="72.74" y="11.71" width="6.75" height="58.31"/></svg>